<svg width="652" height="650" viewBox="0 0 652 650" fill="none" xmlns="http://www.w3.org/2000/svg">
<path d="M600.901 159.021L315.936 443.984C287.559 472.361 203.323 485.505 184.504 466.686C165.686 447.868 178.53 363.633 206.907 335.256L492.172 49.9924C499.206 42.3175 507.723 36.148 517.209 31.8556C526.693 27.5632 536.951 25.2363 547.361 25.017C557.768 24.7981 568.115 26.6901 577.772 30.5795C587.429 34.469 596.199 40.2758 603.55 47.6479C610.901 55.0199 616.684 63.8049 620.547 73.4728C624.409 83.141 626.276 93.4911 626.028 103.9C625.78 114.308 623.423 124.559 619.107 134.033C614.788 143.506 608.595 152.007 600.901 159.021Z" stroke="black" stroke-width="50" stroke-linecap="round" stroke-linejoin="round"/>
<path d="M293.835 87.33H144.482C112.793 87.33 82.4046 99.9181 59.9972 122.325C37.5901 144.733 25 175.123 25 206.812V505.518C25 537.207 37.5901 567.598 59.9972 590.004C82.4046 612.413 112.793 625 144.482 625H473.058C539.072 625 562.67 571.233 562.67 505.518V356.165" stroke="black" stroke-width="50" stroke-linecap="round" stroke-linejoin="round"/>
</svg>
